<mxfile host="app.diagrams.net" modified="2023-10-02T15:57:59.709Z" agent="Mozilla/5.0 (X11; Linux x86_64; rv:109.0) Gecko/20100101 Firefox/114.0" etag="7NAR4tDQHv5xWdwIZpaG" version="22.0.0" type="github">
  <diagram name="Página-1" id="WP_HtRuuokJwuROPciwT">
    <mxGraphModel dx="1434" dy="752" grid="1" gridSize="10" guides="1" tooltips="1" connect="1" arrows="1" fold="1" page="1" pageScale="1" pageWidth="827" pageHeight="1169" math="0" shadow="0">
      <root>
        <mxCell id="0" />
        <mxCell id="1" parent="0" />
        <mxCell id="t_w9ClYHNBa6RBWwoFuC-1" value="COCHE" style="rounded=0;whiteSpace=wrap;html=1;fontSize=14;" vertex="1" parent="1">
          <mxGeometry x="470" y="480" width="120" height="60" as="geometry" />
        </mxCell>
        <mxCell id="t_w9ClYHNBa6RBWwoFuC-30" value="" style="edgeStyle=orthogonalEdgeStyle;rounded=0;orthogonalLoop=1;jettySize=auto;html=1;endArrow=none;endFill=0;" edge="1" parent="1" source="t_w9ClYHNBa6RBWwoFuC-2" target="t_w9ClYHNBa6RBWwoFuC-1">
          <mxGeometry relative="1" as="geometry" />
        </mxCell>
        <mxCell id="t_w9ClYHNBa6RBWwoFuC-2" value="Modelo" style="ellipse;whiteSpace=wrap;html=1;" vertex="1" parent="1">
          <mxGeometry x="650" y="510" width="60" height="40" as="geometry" />
        </mxCell>
        <mxCell id="t_w9ClYHNBa6RBWwoFuC-26" value="" style="edgeStyle=orthogonalEdgeStyle;rounded=0;orthogonalLoop=1;jettySize=auto;html=1;endArrow=none;endFill=0;" edge="1" parent="1" source="t_w9ClYHNBa6RBWwoFuC-3" target="t_w9ClYHNBa6RBWwoFuC-1">
          <mxGeometry relative="1" as="geometry" />
        </mxCell>
        <mxCell id="t_w9ClYHNBa6RBWwoFuC-3" value="Marca" style="ellipse;whiteSpace=wrap;html=1;" vertex="1" parent="1">
          <mxGeometry x="500" y="580" width="60" height="40" as="geometry" />
        </mxCell>
        <mxCell id="t_w9ClYHNBa6RBWwoFuC-29" value="" style="edgeStyle=orthogonalEdgeStyle;rounded=0;orthogonalLoop=1;jettySize=auto;html=1;endArrow=none;endFill=0;" edge="1" parent="1" source="t_w9ClYHNBa6RBWwoFuC-4" target="t_w9ClYHNBa6RBWwoFuC-1">
          <mxGeometry relative="1" as="geometry" />
        </mxCell>
        <mxCell id="t_w9ClYHNBa6RBWwoFuC-4" value="Precio" style="ellipse;whiteSpace=wrap;html=1;" vertex="1" parent="1">
          <mxGeometry x="560" y="580" width="60" height="40" as="geometry" />
        </mxCell>
        <mxCell id="t_w9ClYHNBa6RBWwoFuC-27" value="" style="edgeStyle=orthogonalEdgeStyle;rounded=0;orthogonalLoop=1;jettySize=auto;html=1;endArrow=none;endFill=0;" edge="1" parent="1" source="t_w9ClYHNBa6RBWwoFuC-5" target="t_w9ClYHNBa6RBWwoFuC-1">
          <mxGeometry relative="1" as="geometry" />
        </mxCell>
        <mxCell id="t_w9ClYHNBa6RBWwoFuC-5" value="Matrícula" style="ellipse;whiteSpace=wrap;html=1;fillColor=#f8cecc;strokeColor=#b85450;fontStyle=4" vertex="1" parent="1">
          <mxGeometry x="440" y="580" width="60" height="40" as="geometry" />
        </mxCell>
        <mxCell id="t_w9ClYHNBa6RBWwoFuC-24" value="" style="edgeStyle=orthogonalEdgeStyle;rounded=0;orthogonalLoop=1;jettySize=auto;html=1;endArrow=none;endFill=0;" edge="1" parent="1" source="t_w9ClYHNBa6RBWwoFuC-6" target="t_w9ClYHNBa6RBWwoFuC-1">
          <mxGeometry relative="1" as="geometry" />
        </mxCell>
        <mxCell id="t_w9ClYHNBa6RBWwoFuC-6" value="Color" style="ellipse;whiteSpace=wrap;html=1;" vertex="1" parent="1">
          <mxGeometry x="650" y="470" width="60" height="40" as="geometry" />
        </mxCell>
        <mxCell id="t_w9ClYHNBa6RBWwoFuC-7" value="CLIENTE" style="rounded=0;whiteSpace=wrap;html=1;fontSize=14;" vertex="1" parent="1">
          <mxGeometry x="110" y="480" width="120" height="60" as="geometry" />
        </mxCell>
        <mxCell id="t_w9ClYHNBa6RBWwoFuC-37" value="" style="edgeStyle=orthogonalEdgeStyle;rounded=0;orthogonalLoop=1;jettySize=auto;html=1;endArrow=none;endFill=0;" edge="1" parent="1" source="t_w9ClYHNBa6RBWwoFuC-8" target="t_w9ClYHNBa6RBWwoFuC-7">
          <mxGeometry relative="1" as="geometry" />
        </mxCell>
        <mxCell id="t_w9ClYHNBa6RBWwoFuC-8" value="NIF" style="ellipse;whiteSpace=wrap;html=1;fontStyle=0" vertex="1" parent="1">
          <mxGeometry x="110" y="400" width="60" height="40" as="geometry" />
        </mxCell>
        <mxCell id="t_w9ClYHNBa6RBWwoFuC-32" value="" style="edgeStyle=orthogonalEdgeStyle;rounded=0;orthogonalLoop=1;jettySize=auto;html=1;endArrow=none;endFill=0;" edge="1" parent="1" source="t_w9ClYHNBa6RBWwoFuC-9" target="t_w9ClYHNBa6RBWwoFuC-7">
          <mxGeometry relative="1" as="geometry" />
        </mxCell>
        <mxCell id="t_w9ClYHNBa6RBWwoFuC-9" value="Nombre" style="ellipse;whiteSpace=wrap;html=1;" vertex="1" parent="1">
          <mxGeometry x="110" y="580" width="60" height="40" as="geometry" />
        </mxCell>
        <mxCell id="t_w9ClYHNBa6RBWwoFuC-31" value="" style="edgeStyle=orthogonalEdgeStyle;rounded=0;orthogonalLoop=1;jettySize=auto;html=1;endArrow=none;endFill=0;" edge="1" parent="1" source="t_w9ClYHNBa6RBWwoFuC-10" target="t_w9ClYHNBa6RBWwoFuC-7">
          <mxGeometry relative="1" as="geometry" />
        </mxCell>
        <mxCell id="t_w9ClYHNBa6RBWwoFuC-10" value="Dirección" style="ellipse;whiteSpace=wrap;html=1;" vertex="1" parent="1">
          <mxGeometry x="170" y="580" width="60" height="40" as="geometry" />
        </mxCell>
        <mxCell id="t_w9ClYHNBa6RBWwoFuC-33" value="" style="edgeStyle=orthogonalEdgeStyle;rounded=0;orthogonalLoop=1;jettySize=auto;html=1;endArrow=none;endFill=0;" edge="1" parent="1" source="t_w9ClYHNBa6RBWwoFuC-11" target="t_w9ClYHNBa6RBWwoFuC-7">
          <mxGeometry relative="1" as="geometry" />
        </mxCell>
        <mxCell id="t_w9ClYHNBa6RBWwoFuC-11" value="Ciudad" style="ellipse;whiteSpace=wrap;html=1;" vertex="1" parent="1">
          <mxGeometry x="230" y="580" width="60" height="40" as="geometry" />
        </mxCell>
        <mxCell id="t_w9ClYHNBa6RBWwoFuC-34" value="" style="edgeStyle=orthogonalEdgeStyle;rounded=0;orthogonalLoop=1;jettySize=auto;html=1;endArrow=none;endFill=0;" edge="1" parent="1" source="t_w9ClYHNBa6RBWwoFuC-12" target="t_w9ClYHNBa6RBWwoFuC-7">
          <mxGeometry relative="1" as="geometry" />
        </mxCell>
        <mxCell id="t_w9ClYHNBa6RBWwoFuC-12" value="Nº Teléfono" style="ellipse;whiteSpace=wrap;html=1;" vertex="1" parent="1">
          <mxGeometry x="50" y="580" width="60" height="40" as="geometry" />
        </mxCell>
        <mxCell id="t_w9ClYHNBa6RBWwoFuC-36" value="" style="edgeStyle=orthogonalEdgeStyle;rounded=0;orthogonalLoop=1;jettySize=auto;html=1;endArrow=none;endFill=0;" edge="1" parent="1" source="t_w9ClYHNBa6RBWwoFuC-13" target="t_w9ClYHNBa6RBWwoFuC-7">
          <mxGeometry relative="1" as="geometry" />
        </mxCell>
        <mxCell id="t_w9ClYHNBa6RBWwoFuC-13" value="Id cuenta" style="ellipse;whiteSpace=wrap;html=1;fillColor=#f8cecc;strokeColor=#b85450;fontStyle=4" vertex="1" parent="1">
          <mxGeometry x="170" y="400" width="60" height="40" as="geometry" />
        </mxCell>
        <mxCell id="t_w9ClYHNBa6RBWwoFuC-15" value="CONCESIONARIO" style="rounded=0;whiteSpace=wrap;html=1;fontSize=14;" vertex="1" parent="1">
          <mxGeometry x="470" y="220" width="120" height="60" as="geometry" />
        </mxCell>
        <mxCell id="t_w9ClYHNBa6RBWwoFuC-19" value="" style="edgeStyle=orthogonalEdgeStyle;rounded=0;orthogonalLoop=1;jettySize=auto;html=1;endArrow=none;endFill=0;" edge="1" parent="1" source="t_w9ClYHNBa6RBWwoFuC-16" target="t_w9ClYHNBa6RBWwoFuC-1">
          <mxGeometry relative="1" as="geometry" />
        </mxCell>
        <mxCell id="t_w9ClYHNBa6RBWwoFuC-20" value="" style="edgeStyle=orthogonalEdgeStyle;rounded=0;orthogonalLoop=1;jettySize=auto;html=1;endArrow=none;endFill=0;" edge="1" parent="1" source="t_w9ClYHNBa6RBWwoFuC-16" target="t_w9ClYHNBa6RBWwoFuC-7">
          <mxGeometry relative="1" as="geometry" />
        </mxCell>
        <mxCell id="t_w9ClYHNBa6RBWwoFuC-16" value="COMPRA" style="rhombus;whiteSpace=wrap;html=1;fillColor=#fff2cc;strokeColor=#d6b656;" vertex="1" parent="1">
          <mxGeometry x="310" y="470" width="80" height="80" as="geometry" />
        </mxCell>
        <mxCell id="t_w9ClYHNBa6RBWwoFuC-21" value="" style="edgeStyle=orthogonalEdgeStyle;rounded=0;orthogonalLoop=1;jettySize=auto;html=1;endArrow=none;endFill=0;" edge="1" parent="1" source="t_w9ClYHNBa6RBWwoFuC-18" target="t_w9ClYHNBa6RBWwoFuC-15">
          <mxGeometry relative="1" as="geometry" />
        </mxCell>
        <mxCell id="t_w9ClYHNBa6RBWwoFuC-22" value="" style="edgeStyle=orthogonalEdgeStyle;rounded=0;orthogonalLoop=1;jettySize=auto;html=1;endArrow=none;endFill=0;" edge="1" parent="1" source="t_w9ClYHNBa6RBWwoFuC-18" target="t_w9ClYHNBa6RBWwoFuC-1">
          <mxGeometry relative="1" as="geometry" />
        </mxCell>
        <mxCell id="t_w9ClYHNBa6RBWwoFuC-18" value="REVISIÓN" style="rhombus;whiteSpace=wrap;html=1;fillColor=#fff2cc;strokeColor=#d6b656;" vertex="1" parent="1">
          <mxGeometry x="490" y="340" width="80" height="80" as="geometry" />
        </mxCell>
        <mxCell id="t_w9ClYHNBa6RBWwoFuC-35" value="" style="edgeStyle=orthogonalEdgeStyle;rounded=0;orthogonalLoop=1;jettySize=auto;html=1;endArrow=none;endFill=0;" edge="1" parent="1" source="t_w9ClYHNBa6RBWwoFuC-23" target="t_w9ClYHNBa6RBWwoFuC-18">
          <mxGeometry relative="1" as="geometry" />
        </mxCell>
        <mxCell id="t_w9ClYHNBa6RBWwoFuC-23" value="Código" style="ellipse;whiteSpace=wrap;html=1;fillColor=#f8cecc;strokeColor=#b85450;fontStyle=4" vertex="1" parent="1">
          <mxGeometry x="610" y="380" width="60" height="40" as="geometry" />
        </mxCell>
        <mxCell id="t_w9ClYHNBa6RBWwoFuC-44" value="" style="edgeStyle=orthogonalEdgeStyle;rounded=0;orthogonalLoop=1;jettySize=auto;html=1;endArrow=none;endFill=0;" edge="1" parent="1" source="t_w9ClYHNBa6RBWwoFuC-40" target="t_w9ClYHNBa6RBWwoFuC-18">
          <mxGeometry relative="1" as="geometry" />
        </mxCell>
        <mxCell id="t_w9ClYHNBa6RBWwoFuC-40" value="Cambio de aceite" style="ellipse;whiteSpace=wrap;html=1;" vertex="1" parent="1">
          <mxGeometry x="390" y="330" width="70" height="50" as="geometry" />
        </mxCell>
        <mxCell id="t_w9ClYHNBa6RBWwoFuC-45" value="" style="edgeStyle=orthogonalEdgeStyle;rounded=0;orthogonalLoop=1;jettySize=auto;html=1;endArrow=none;endFill=0;" edge="1" parent="1" source="t_w9ClYHNBa6RBWwoFuC-41" target="t_w9ClYHNBa6RBWwoFuC-18">
          <mxGeometry relative="1" as="geometry" />
        </mxCell>
        <mxCell id="t_w9ClYHNBa6RBWwoFuC-41" value="Cambio de filtro" style="ellipse;whiteSpace=wrap;html=1;" vertex="1" parent="1">
          <mxGeometry x="390" y="380" width="70" height="50" as="geometry" />
        </mxCell>
        <mxCell id="t_w9ClYHNBa6RBWwoFuC-43" value="" style="edgeStyle=orthogonalEdgeStyle;rounded=0;orthogonalLoop=1;jettySize=auto;html=1;endArrow=none;endFill=0;" edge="1" parent="1" source="t_w9ClYHNBa6RBWwoFuC-42" target="t_w9ClYHNBa6RBWwoFuC-18">
          <mxGeometry relative="1" as="geometry" />
        </mxCell>
        <mxCell id="t_w9ClYHNBa6RBWwoFuC-42" value="Cambio de frenos" style="ellipse;whiteSpace=wrap;html=1;" vertex="1" parent="1">
          <mxGeometry x="610" y="330" width="70" height="50" as="geometry" />
        </mxCell>
      </root>
    </mxGraphModel>
  </diagram>
</mxfile>
